<svg viewBox="0 0 960 640" xmlns="http://www.w3.org/2000/svg" role="img" font-family="Segoe UI, system-ui, sans-serif">
  <title>Referência visual — janela de configurações do SmileEngine</title>
  <desc>Mockup da janela de configurações em QML: sidebar de categorias à esquerda, página de Renderização com FSR 2, render scale e toggles de cena, coluna de status de desempenho e ray tracing à direita.</desc>
  <defs>
    <clipPath id="win"><rect x="8" y="8" width="944" height="624" rx="10"/></clipPath>
  </defs>

  <rect x="8" y="8" width="944" height="624" rx="10" fill="#141511" stroke="#2e2f28"/>

  <g clip-path="url(#win)">
    <rect x="8" y="48" width="240" height="584" fill="#10110f"/>
    <line x1="8" y1="48" x2="952" y2="48" stroke="#23241d"/>
    <line x1="248" y1="48" x2="248" y2="632" stroke="#23241d"/>

    <g fill="none" stroke="#5b9dff" stroke-width="1.4">
      <circle cx="26" cy="28" r="8"/>
      <path d="M22 30 Q26 34 30 30"/>
    </g>
    <circle cx="23" cy="26" r="1.1" fill="#5b9dff"/>
    <circle cx="29" cy="26" r="1.1" fill="#5b9dff"/>
    <text x="42" y="32" font-size="12" fill="#c8c2b4">Configurações — SmileEngine</text>
    <g stroke="#9a958a" stroke-width="1.3" fill="none">
      <line x1="862" y1="28" x2="872" y2="28"/>
      <rect x="890" y="23" width="10" height="10" rx="1.5"/>
      <line x1="920" y1="23" x2="930" y2="33"/>
      <line x1="930" y1="23" x2="920" y2="33"/>
    </g>

    <rect x="20" y="64" width="216" height="30" rx="6" fill="#1a1b15" stroke="#2a2b24"/>
    <circle cx="34" cy="78" r="4" fill="none" stroke="#6c6a61" stroke-width="1.3"/>
    <line x1="37" y1="81" x2="40" y2="84" stroke="#6c6a61" stroke-width="1.3"/>
    <text x="46" y="82" font-size="11" fill="#6c6a61">Buscar configuração…</text>

    <text x="28" y="120" font-size="11" fill="#6c6a61">Gráficos</text>

    <rect x="20" y="132" width="216" height="30" rx="6" fill="#16233f" stroke="#27406e"/>
    <rect x="20" y="136" width="3" height="22" rx="1.5" fill="#5b9dff"/>
    <g fill="none" stroke="#5b9dff" stroke-width="1.3">
      <rect x="32" y="138" width="12" height="9" rx="1.5"/>
      <line x1="38" y1="147" x2="38" y2="150"/>
      <line x1="35" y1="150" x2="41" y2="150"/>
    </g>
    <text x="54" y="151" font-size="12" fill="#e6e2d8">Renderização</text>

    <g fill="none" stroke="#8f8a7d" stroke-width="1.3">
      <circle cx="38" cy="179" r="3"/>
      <line x1="38" y1="173.5" x2="38" y2="171.5"/>
      <line x1="38" y1="184.5" x2="38" y2="186.5"/>
      <line x1="32.5" y1="179" x2="30.5" y2="179"/>
      <line x1="43.5" y1="179" x2="45.5" y2="179"/>
    </g>
    <text x="54" y="185" font-size="12" fill="#b9b5aa">Iluminação global</text>

    <polyline points="32,219 37,210 41,216 44,212" fill="none" stroke="#8f8a7d" stroke-width="1.3"/>
    <text x="54" y="219" font-size="12" fill="#b9b5aa">Path tracer</text>
    <rect x="126" y="208" width="34" height="14" rx="7" fill="#33260f" stroke="#57431a"/>
    <text x="143" y="218" font-size="10" fill="#d8a03a" text-anchor="middle">beta</text>

    <polygon points="38,242 44,248 38,254 32,248" fill="none" stroke="#8f8a7d" stroke-width="1.3"/>
    <text x="54" y="253" font-size="12" fill="#b9b5aa">Reflexos e denoise</text>

    <path d="M31 283 q3.5 -6 7 0 t7 0" fill="none" stroke="#8f8a7d" stroke-width="1.3"/>
    <text x="54" y="287" font-size="12" fill="#b9b5aa">Água — FFT</text>

    <g stroke="#8f8a7d" stroke-width="1.3">
      <line x1="31" y1="313" x2="45" y2="313"/>
      <circle cx="35" cy="313" r="2.2" fill="#10110f"/>
      <line x1="31" y1="320" x2="45" y2="320"/>
      <circle cx="41" cy="320" r="2.2" fill="#10110f"/>
    </g>
    <text x="54" y="321" font-size="12" fill="#b9b5aa">Pós-processo</text>

    <circle cx="37" cy="350" r="4.5" fill="none" stroke="#8f8a7d" stroke-width="1.3"/>
    <circle cx="40.5" cy="347.5" r="4.5" fill="#10110f"/>
    <text x="54" y="355" font-size="12" fill="#b9b5aa">Sombras e céu</text>

    <text x="28" y="389" font-size="11" fill="#6c6a61">Editor</text>

    <g fill="none" stroke="#8f8a7d" stroke-width="1.3">
      <rect x="31" y="406" width="14" height="12" rx="2"/>
      <line x1="31" y1="410" x2="45" y2="410"/>
      <line x1="36" y1="410" x2="36" y2="418"/>
    </g>
    <text x="54" y="417" font-size="12" fill="#b9b5aa">Interface</text>

    <g fill="none" stroke="#8f8a7d" stroke-width="1.3">
      <rect x="30" y="442" width="16" height="10" rx="2"/>
      <line x1="34" y1="449" x2="42" y2="449"/>
    </g>
    <text x="54" y="451" font-size="12" fill="#b9b5aa">Atalhos</text>

    <path d="M31 475 h5 l2 2 h7 v9 h-14 z" fill="none" stroke="#8f8a7d" stroke-width="1.3"/>
    <text x="54" y="485" font-size="12" fill="#b9b5aa">Projeto</text>

    <rect x="20" y="560" width="216" height="52" rx="8" fill="#1a1b15" stroke="#2a2b24"/>
    <text x="34" y="580" font-size="11" fill="#6c6a61">Preset ativo</text>
    <text x="34" y="598" font-size="12" fill="#c8c2b4">Ultra — RT completo</text>
    <polyline points="217,580 222,586 217,592" fill="none" stroke="#6c6a61" stroke-width="1.3"/>

    <text x="272" y="94" font-size="20" font-weight="500" fill="#e6e2d8">Renderização</text>
    <text x="272" y="112" font-size="11" fill="#9a958a">Upscaling, anti-aliasing e resolução interna do viewport</text>
    <rect x="748" y="76" width="180" height="22" rx="11" fill="#1a1b15" stroke="#2a2b24"/>
    <text x="838" y="91" font-size="11" fill="#9a958a" text-anchor="middle">RTX 4070 · DX12 Ultimate</text>

    <rect x="272" y="124" width="460" height="272" rx="8" fill="#1a1b15" stroke="#2a2b24"/>
    <text x="292" y="152" font-size="13" font-weight="500" fill="#e6e2d8">Upscaling e anti-aliasing</text>
    <line x1="272" y1="164" x2="732" y2="164" stroke="#23241d"/>

    <text x="292" y="190" font-size="13" fill="#e6e2d8">FSR 2</text>
    <text x="292" y="206" font-size="11" fill="#6c6a61">Substitui o TAA quando ativo · disponível apenas em build Release</text>
    <rect x="674" y="178" width="36" height="20" rx="10" fill="#5b9dff"/>
    <circle cx="700" cy="188" r="7" fill="#f2efe6"/>

    <text x="292" y="238" font-size="12" fill="#c8c2b4">Qualidade do FSR 2</text>
    <rect x="292" y="250" width="420" height="26" rx="6" fill="#23241d" stroke="#2a2b24"/>
    <rect x="376" y="250" width="84" height="26" rx="6" fill="#16233f" stroke="#27406e"/>
    <text x="334" y="267" font-size="11" fill="#9a958a" text-anchor="middle">Nativo</text>
    <text x="418" y="267" font-size="11" fill="#5b9dff" text-anchor="middle">Qualidade</text>
    <text x="502" y="267" font-size="11" fill="#9a958a" text-anchor="middle">Balanceado</text>
    <text x="586" y="267" font-size="11" fill="#9a958a" text-anchor="middle">Performance</text>
    <text x="670" y="267" font-size="11" fill="#9a958a" text-anchor="middle">Ultra</text>
    <text x="292" y="294" font-size="11" fill="#6c6a61">Upscale 1,5× — render interno 1280×720, saída 1920×1080</text>

    <text x="292" y="322" font-size="12" fill="#c8c2b4">Render scale (SSAA)</text>
    <rect x="668" y="308" width="52" height="20" rx="4" fill="#23241d" stroke="#2a2b24"/>
    <text x="694" y="322" font-size="11" fill="#e6e2d8" text-anchor="middle">1,00×</text>
    <rect x="292" y="334" width="380" height="4" rx="2" fill="#23241d"/>
    <rect x="292" y="334" width="127" height="4" rx="2" fill="#5b9dff"/>
    <circle cx="419" cy="336" r="7" fill="#f2efe6" stroke="#5b9dff" stroke-width="1.5"/>
    <text x="292" y="354" font-size="10" fill="#6c6a61">0,5×</text>
    <text x="419" y="354" font-size="10" fill="#6c6a61" text-anchor="middle">1,0×</text>
    <text x="672" y="354" font-size="10" fill="#6c6a61" text-anchor="end">2,0×</text>

    <text x="292" y="380" font-size="12" fill="#6c6a61">TAA</text>
    <text x="660" y="380" font-size="11" fill="#6c6a61" text-anchor="end">desligado — FSR 2 controla a resolução</text>
    <rect x="674" y="368" width="36" height="20" rx="10" fill="#23241d" stroke="#33342c"/>
    <circle cx="684" cy="378" r="7" fill="#6c6a61"/>

    <rect x="272" y="408" width="460" height="146" rx="8" fill="#1a1b15" stroke="#2a2b24"/>
    <text x="292" y="436" font-size="13" font-weight="500" fill="#e6e2d8">Cena e geometria</text>
    <line x1="272" y1="448" x2="732" y2="448" stroke="#23241d"/>

    <text x="292" y="478" font-size="12" fill="#c8c2b4">Frustum culling</text>
    <text x="430" y="478" font-size="11" fill="#6c6a61">descarta o que está fora da câmera</text>
    <rect x="674" y="464" width="36" height="20" rx="10" fill="#5b9dff"/>
    <circle cx="700" cy="474" r="7" fill="#f2efe6"/>

    <text x="292" y="510" font-size="12" fill="#c8c2b4">Depth prepass</text>
    <text x="430" y="510" font-size="11" fill="#6c6a61">pré-passe de profundidade</text>
    <rect x="674" y="496" width="36" height="20" rx="10" fill="#23241d" stroke="#33342c"/>
    <circle cx="684" cy="506" r="7" fill="#6c6a61"/>

    <text x="292" y="542" font-size="12" fill="#c8c2b4">Mesclar por material</text>
    <text x="430" y="542" font-size="11" fill="#6c6a61">agrupa draws por material</text>
    <rect x="674" y="528" width="36" height="20" rx="10" fill="#23241d" stroke="#33342c"/>
    <circle cx="684" cy="538" r="7" fill="#6c6a61"/>

    <rect x="748" y="124" width="180" height="170" rx="8" fill="#1a1b15" stroke="#2a2b24"/>
    <text x="764" y="150" font-size="13" font-weight="500" fill="#e6e2d8">Desempenho</text>
    <text x="764" y="192" font-size="28" font-weight="500" fill="#5b9dff">118</text>
    <text x="814" y="192" font-size="12" fill="#9a958a">fps</text>
    <text x="764" y="210" font-size="11" fill="#9a958a">8,4 ms por frame</text>
    <line x1="748" y1="224" x2="928" y2="224" stroke="#23241d"/>
    <text x="764" y="246" font-size="11" fill="#6c6a61">Draws visíveis</text>
    <text x="912" y="246" font-size="11" fill="#c8c2b4" text-anchor="end">1 243 / 3 890</text>
    <text x="764" y="266" font-size="11" fill="#6c6a61">Res. interna</text>
    <text x="912" y="266" font-size="11" fill="#c8c2b4" text-anchor="end">1280×720</text>
    <text x="764" y="286" font-size="11" fill="#6c6a61">VRAM</text>
    <text x="912" y="286" font-size="11" fill="#c8c2b4" text-anchor="end">3,2 GB</text>

    <rect x="748" y="306" width="180" height="180" rx="8" fill="#1a1b15" stroke="#2a2b24"/>
    <text x="764" y="332" font-size="13" font-weight="500" fill="#e6e2d8">Ray tracing</text>
    <line x1="748" y1="344" x2="928" y2="344" stroke="#23241d"/>
    <circle cx="770" cy="364" r="3.5" fill="#9ac055"/>
    <text x="782" y="368" font-size="12" fill="#c8c2b4">DDGI</text>
    <text x="912" y="368" font-size="11" fill="#6c6a61" text-anchor="end">ligado</text>
    <circle cx="770" cy="388" r="3.5" fill="#9ac055"/>
    <text x="782" y="392" font-size="12" fill="#c8c2b4">ReSTIR GI</text>
    <text x="912" y="392" font-size="11" fill="#6c6a61" text-anchor="end">ligado</text>
    <circle cx="770" cy="412" r="3.5" fill="#9ac055"/>
    <text x="782" y="416" font-size="12" fill="#c8c2b4">NRD REBLUR</text>
    <text x="912" y="416" font-size="11" fill="#6c6a61" text-anchor="end">ligado</text>
    <circle cx="770" cy="436" r="3.5" fill="#9ac055"/>
    <text x="782" y="440" font-size="12" fill="#c8c2b4">Reflexos RT</text>
    <text x="912" y="440" font-size="11" fill="#6c6a61" text-anchor="end">ligado</text>
    <circle cx="770" cy="460" r="3.5" fill="#6c6a61"/>
    <text x="782" y="464" font-size="12" fill="#c8c2b4">Path tracer</text>
    <text x="912" y="464" font-size="11" fill="#6c6a61" text-anchor="end">desligado</text>

    <line x1="248" y1="584" x2="952" y2="584" stroke="#23241d"/>
    <text x="272" y="614" font-size="11" fill="#6c6a61">As alterações são aplicadas em tempo real no viewport</text>
    <rect x="700" y="598" width="140" height="28" rx="6" fill="none" stroke="#33342c"/>
    <text x="770" y="616" font-size="12" fill="#c8c2b4" text-anchor="middle">Restaurar padrões</text>
    <rect x="850" y="598" width="78" height="28" rx="6" fill="#5b9dff"/>
    <text x="889" y="616" font-size="12" font-weight="500" fill="#10110f" text-anchor="middle">Aplicar</text>
  </g>
</svg>
