<svg viewBox="0 0 1000 900" xmlns="http://www.w3.org/2000/svg" role="img" font-family="Inter, Segoe UI, system-ui, sans-serif">
  <title>Referência visual — splash screen do SmileEditor</title>
  <desc>Mockup da janela de splash exibida do main() até o renderer ficar pronto: arte full-bleed da cena Emerald Square à noite (aqui esquematizada; na implementação é o PNG do screenshot), scrim vertical, logo + wordmark, linha de etapa ao vivo, barra de progresso dourada, versão/build à direita. Abaixo, os quatro estados do ciclo de boot e as especificações de janela, conteúdo e ciclo de vida.</desc>

  <defs>
    <clipPath id="heroClip"><rect x="100" y="64" width="800" height="450" rx="6"/></clipPath>
    <clipPath id="m1"><rect x="100" y="566" width="188" height="106" rx="4"/></clipPath>
    <clipPath id="m2"><rect x="304" y="566" width="188" height="106" rx="4"/></clipPath>
    <clipPath id="m3"><rect x="508" y="566" width="188" height="106" rx="4"/></clipPath>
    <clipPath id="m4"><rect x="712" y="566" width="188" height="106" rx="4"/></clipPath>

    <linearGradient id="skyGrad" x1="0" y1="0" x2="0" y2="1">
      <stop offset="0" stop-color="#3e5674"/>
      <stop offset="0.55" stop-color="#2c3d53"/>
      <stop offset="1" stop-color="#1f2a37"/>
    </linearGradient>
    <linearGradient id="leftFacade" x1="0" y1="0" x2="1" y2="0">
      <stop offset="0" stop-color="#1a1f27"/>
      <stop offset="1" stop-color="#11151b"/>
    </linearGradient>
    <linearGradient id="rightFacade" x1="0" y1="0" x2="1" y2="0.4">
      <stop offset="0" stop-color="#171a1f"/>
      <stop offset="0.5" stop-color="#131519"/>
      <stop offset="1" stop-color="#0f1114"/>
    </linearGradient>
    <linearGradient id="ground" x1="0" y1="0" x2="0" y2="1">
      <stop offset="0" stop-color="#1c1f25"/>
      <stop offset="0.5" stop-color="#14161b"/>
      <stop offset="1" stop-color="#0d0f13"/>
    </linearGradient>
    <linearGradient id="winPane" x1="0" y1="0" x2="0" y2="1">
      <stop offset="0" stop-color="#ffeec2"/>
      <stop offset="0.45" stop-color="#f8d494"/>
      <stop offset="1" stop-color="#e6ad5c"/>
    </linearGradient>
    <linearGradient id="shaft" x1="0" y1="0" x2="0" y2="1">
      <stop offset="0" stop-color="#f0bd78" stop-opacity="0.05"/>
      <stop offset="0.28" stop-color="#eeb268" stop-opacity="0.44"/>
      <stop offset="0.7" stop-color="#e6a45a" stop-opacity="0.22"/>
      <stop offset="1" stop-color="#dc9a52" stop-opacity="0.04"/>
    </linearGradient>
    <radialGradient id="warmGlow">
      <stop offset="0" stop-color="#ffca7a" stop-opacity="0.55"/>
      <stop offset="0.45" stop-color="#f5a94c" stop-opacity="0.18"/>
      <stop offset="1" stop-color="#e08c2e" stop-opacity="0"/>
    </radialGradient>
    <radialGradient id="winGlow">
      <stop offset="0" stop-color="#ffdca0" stop-opacity="0.5"/>
      <stop offset="0.5" stop-color="#f0ad55" stop-opacity="0.16"/>
      <stop offset="1" stop-color="#d98f38" stop-opacity="0"/>
    </radialGradient>
    <radialGradient id="poolGlow">
      <stop offset="0" stop-color="#e8a75a" stop-opacity="0.22"/>
      <stop offset="1" stop-color="#c78436" stop-opacity="0"/>
    </radialGradient>
    <radialGradient id="vig" cx="0.5" cy="0.44" r="0.78">
      <stop offset="0.45" stop-color="#000" stop-opacity="0"/>
      <stop offset="1" stop-color="#000" stop-opacity="0.62"/>
    </radialGradient>
    <linearGradient id="scrim" x1="0" y1="0" x2="0" y2="1">
      <stop offset="0" stop-color="#05060a" stop-opacity="0"/>
      <stop offset="0.42" stop-color="#05060a" stop-opacity="0.42"/>
      <stop offset="0.72" stop-color="#05060a" stop-opacity="0.82"/>
      <stop offset="1" stop-color="#040508" stop-opacity="0.95"/>
    </linearGradient>
    <linearGradient id="goldBar" x1="0" y1="0" x2="1" y2="0">
      <stop offset="0" stop-color="#7a5305"/>
      <stop offset="0.6" stop-color="#d9a514"/>
      <stop offset="1" stop-color="#ffe08a"/>
    </linearGradient>
    <linearGradient id="logoGold" x1="0" y1="14" x2="0" y2="84" gradientUnits="userSpaceOnUse">
      <stop offset="0" stop-color="#ffeb62"/>
      <stop offset="0.32" stop-color="#ffc218"/>
      <stop offset="0.68" stop-color="#e69700"/>
      <stop offset="1" stop-color="#ffd334"/>
    </linearGradient>
    <radialGradient id="logoGlow">
      <stop offset="0" stop-color="#ffbf18" stop-opacity="0.28"/>
      <stop offset="0.55" stop-color="#ffb400" stop-opacity="0.08"/>
      <stop offset="1" stop-color="#ffb400" stop-opacity="0"/>
    </radialGradient>

    <filter id="txtShadow" x="-25%" y="-40%" width="160%" height="200%">
      <feDropShadow dx="0" dy="1" stdDeviation="2.4" flood-color="#000" flood-opacity="0.8"/>
    </filter>

    <!-- Mark oficial: mesma geometria do MakeSmileLogoPixmap (espaco 96x96) -->
    <g id="logo">
      <circle cx="48" cy="48" r="34" fill="none" stroke="#d9a514" stroke-width="2.5" opacity="0.4"/>
      <path d="M69.24 21.44 A34 34 0 1 1 17.76 63.56 A34 34 0 0 0 69.24 21.44 Z" fill="#d9a514"/>
    </g>

    <!-- Arte de fundo: esquema do screenshot noturno (Emerald Square). Espaco local 800x450 -->
    <g id="art">
      <rect width="800" height="450" fill="#0b0e13"/>

      <rect x="185" y="0" width="180" height="132" fill="url(#skyGrad)"/>
      <g fill="#cfe0f2" opacity="0.35">
        <circle cx="228" cy="24" r="0.9"/><circle cx="276" cy="14" r="0.7"/><circle cx="318" cy="38" r="0.8"/>
      </g>

      <!-- predio distante do fundo da rua -->
      <path d="M212 300 L212 80 L232 60 L248 51 L266 51 L282 60 L300 80 L300 300 Z" fill="#212a35"/>
      <path d="M212 80 L232 60 L248 51 L266 51 L282 60 L300 80 Z" fill="#27313e"/>
      <rect x="250" y="41" width="7" height="11" fill="#232c37"/>
      <path d="M268 51 L268 33 M264 37 L272 37 M264 42 L272 42" stroke="#2b3644" stroke-width="1"/>
      <g fill="#0e141b">
        <rect x="222" y="96" width="11" height="15" rx="1"/><rect x="242" y="96" width="11" height="15" rx="1"/>
        <rect x="262" y="96" width="11" height="15" rx="1"/><rect x="282" y="96" width="11" height="15" rx="1"/>
        <rect x="222" y="130" width="11" height="15" rx="1"/><rect x="262" y="130" width="11" height="15" rx="1"/>
        <rect x="282" y="130" width="11" height="15" rx="1"/>
      </g>
      <rect x="242" y="130" width="11" height="15" rx="1" fill="#7d6338" opacity="0.85"/>
      <rect x="222" y="64" width="9" height="10" rx="1" fill="#6d5731" opacity="0.6"/>

      <!-- quarteirao da esquerda -->
      <path d="M0 0 H198 L198 44 L214 50 L214 322 H0 Z" fill="url(#leftFacade)"/>
      <g stroke="#ffffff" stroke-opacity="0.035" stroke-width="1">
        <path d="M70 0 V318"/><path d="M140 0 V318"/><path d="M196 44 V318"/>
      </g>
      <g fill="#090c11" stroke="#ffffff" stroke-opacity="0.055">
        <rect x="20" y="18" width="26" height="34" rx="1.5"/><rect x="88" y="18" width="26" height="34" rx="1.5"/>
        <rect x="156" y="22" width="24" height="32" rx="1.5"/>
        <rect x="20" y="92" width="26" height="34" rx="1.5"/><rect x="88" y="92" width="26" height="34" rx="1.5"/>
        <rect x="156" y="94" width="24" height="32" rx="1.5"/>
        <rect x="20" y="164" width="26" height="32" rx="1.5"/><rect x="88" y="164" width="26" height="32" rx="1.5"/>
        <rect x="156" y="166" width="24" height="30" rx="1.5"/>
      </g>
      <g fill="#4e1c19">
        <path d="M14 52 h38 l-6 15 h-26 z"/><path d="M82 52 h38 l-6 15 h-26 z"/><path d="M150 54 h36 l-6 14 h-24 z"/>
        <path d="M14 126 h38 l-6 15 h-26 z"/><path d="M82 126 h38 l-6 15 h-26 z"/><path d="M150 126 h36 l-6 14 h-24 z"/>
      </g>
      <g fill="#67231e" opacity="0.75">
        <rect x="14" y="52" width="38" height="3"/><rect x="82" y="52" width="38" height="3"/><rect x="150" y="54" width="36" height="3"/>
        <rect x="14" y="126" width="38" height="3"/><rect x="82" y="126" width="38" height="3"/><rect x="150" y="126" width="36" height="3"/>
      </g>
      <!-- grades de sacada -->
      <g stroke="#3a3d3f" stroke-opacity="0.5" stroke-width="0.9">
        <path d="M16 88 h34 M16 82 v6 M24 82 v6 M32 82 v6 M40 82 v6 M48 82 v6"/>
        <path d="M84 88 h34 M84 82 v6 M92 82 v6 M100 82 v6 M108 82 v6 M116 82 v6"/>
      </g>
      <!-- lampiao de parede -->
      <ellipse cx="31" cy="104" rx="34" ry="30" fill="url(#warmGlow)"/>
      <path d="M24 96 h14 l3 14 h-20 z" fill="#f7c260"/>
      <path d="M24 96 h14 l3 14 h-20 z" fill="none" stroke="#2a2620" stroke-width="1.4"/>
      <path d="M31 110 v6 M18 96 h26" stroke="#2a2620" stroke-width="1.6"/>
      <ellipse cx="189" cy="152" rx="18" ry="16" fill="url(#warmGlow)"/>
      <rect x="185" y="147" width="8" height="10" rx="1" fill="#eeb757"/>

      <!-- arvores da calcada esquerda -->
      <path d="M139 108 C150 130 154 168 150 206 L128 206 C124 168 128 130 139 108 Z" fill="#16241a"/>
      <path d="M139 108 C133 132 130 170 132 206 L128 206 C124 168 128 130 139 108 Z" fill="#1d2f21"/>
      <path d="M208 132 C217 150 220 180 217 206 L199 206 C196 180 199 150 208 132 Z" fill="#152218"/>
      <!-- cruz verde de farmacia -->
      <g fill="#4ec46a" opacity="0.9">
        <rect x="258" y="172" width="10" height="3.4" rx="0.8"/><rect x="261.3" y="168.7" width="3.4" height="10" rx="0.8"/>
      </g>
      <ellipse cx="263" cy="173.7" rx="14" ry="12" fill="#4ec46a" opacity="0.12"/>

      <!-- quarteirao da direita (restaurante da esquina) -->
      <path d="M330 300 L330 26 L366 8 H800 V300 Z" fill="url(#rightFacade)"/>
      <!-- sacada superior -->
      <rect x="428" y="14" width="118" height="66" fill="#0c0f13"/>
      <g stroke="#8d8574" stroke-opacity="0.22" stroke-width="0.9">
        <path d="M428 18 h118 M428 78 h118"/>
        <path d="M436 18 v60 M446 18 v60 M456 18 v60 M466 18 v60 M476 18 v60 M486 18 v60 M496 18 v60 M506 18 v60 M516 18 v60 M526 18 v60 M536 18 v60"/>
      </g>
      <path d="M430 78 C452 96 486 98 512 88 C528 82 540 84 546 78 L546 92 L430 94 Z" fill="#18271a"/>
      <g fill="#1e3020" opacity="0.9">
        <ellipse cx="452" cy="90" rx="14" ry="7"/><ellipse cx="486" cy="94" rx="16" ry="8"/><ellipse cx="522" cy="88" rx="12" ry="6"/>
      </g>
      <!-- toldos -->
      <path d="M414 128 h150 l-7 27 h-136 z" fill="#3d1618"/>
      <rect x="414" y="128" width="150" height="4" fill="#521e21"/>
      <path d="M578 124 h220 l-6 23 h-208 z" fill="#38141a"/>
      <rect x="578" y="124" width="220" height="4" fill="#4b1c22"/>
      <path d="M340 132 h70 l-5 22 h-62 z" fill="#231a13"/>
      <!-- letreiros -->
      <rect x="576" y="104" width="224" height="22" fill="#100d0a" opacity="0.75"/>
      <text x="654" y="121" font-family="Georgia, serif" font-style="italic" font-size="13" fill="#c0a271" text-anchor="middle">Restaurant</text>
      <text x="742" y="122" font-family="Georgia, serif" font-style="italic" font-size="11" fill="#ad8f61" text-anchor="middle">Le Petit Coin</text>
      <!-- vitrine -->
      <rect x="340" y="152" width="460" height="100" fill="#100e0b"/>
      <rect x="596" y="158" width="196" height="62" fill="#241a11"/>
      <rect x="352" y="158" width="56" height="60" fill="#1d1710"/>
      <g stroke="#2b2218" stroke-width="1">
        <path d="M340 218 h460"/><path d="M568 152 v100"/><path d="M420 152 v100"/>
      </g>
      <!-- janela quente principal -->
      <ellipse cx="484" cy="200" rx="126" ry="98" fill="url(#winGlow)"/>
      <rect x="451" y="158" width="66" height="84" fill="url(#winPane)"/>
      <g stroke="#7a5626" stroke-opacity="0.45">
        <path d="M484 158 V242" stroke-width="2"/>
        <path d="M451 172 h66 M451 186 h66 M451 200 h66 M451 214 h66 M451 228 h66" stroke-width="0.9"/>
      </g>
      <rect x="449" y="156" width="70" height="88" fill="none" stroke="#1a1611" stroke-width="3"/>
      <!-- globos alaranjados -->
      <g>
        <ellipse cx="346" cy="186" rx="22" ry="18" fill="url(#warmGlow)"/><ellipse cx="346" cy="186" rx="9" ry="7" fill="#f0a94a"/>
        <ellipse cx="374" cy="180" rx="22" ry="18" fill="url(#warmGlow)"/><ellipse cx="374" cy="180" rx="9" ry="7" fill="#f0a94a"/>
        <ellipse cx="629" cy="178" rx="24" ry="19" fill="url(#warmGlow)"/><ellipse cx="629" cy="178" rx="10" ry="7.5" fill="#f0a94a"/>
        <ellipse cx="696" cy="179" rx="24" ry="19" fill="url(#warmGlow)"/><ellipse cx="696" cy="179" rx="10" ry="7.5" fill="#f0a94a"/>
        <ellipse cx="722" cy="182" rx="20" ry="16" fill="url(#warmGlow)"/><ellipse cx="722" cy="182" rx="8" ry="6" fill="#eea24a"/>
      </g>
      <!-- mesas de bistro -->
      <g stroke="#22262c" stroke-width="1.4" fill="none">
        <path d="M612 240 h26 M625 240 v14 M618 254 h14"/>
        <path d="M660 236 h24 M672 236 v14 M666 250 h12"/>
        <path d="M706 238 h24 M718 238 v14 M712 252 h12"/>
      </g>
      <rect x="736" y="228" width="34" height="44" rx="2" fill="#131519" stroke="#22262c"/>
      <text x="753" y="248" font-size="7" fill="#5d5a52" text-anchor="middle">MENU</text>

      <!-- cordoes de luz -->
      <g stroke="#b9b1a0" stroke-opacity="0.22" stroke-width="0.7" fill="none">
        <path d="M0 40 Q110 84 224 44"/><path d="M224 44 Q290 78 344 40"/><path d="M0 96 Q104 130 208 100"/>
      </g>
      <g>
        <circle cx="26.5" cy="49.3" r="2.2" fill="#6ee06e"/><circle cx="55" cy="57" r="2.2" fill="#f2f2f2"/>
        <circle cx="84" cy="61" r="2.2" fill="#ffa23c"/><circle cx="111" cy="63" r="2.2" fill="#5b9dff"/>
        <circle cx="138" cy="62" r="2.2" fill="#ff5a4a"/><circle cx="167" cy="59" r="2.2" fill="#ff5ec8"/>
        <circle cx="197" cy="52" r="2.2" fill="#6ee06e"/>
        <circle cx="250" cy="55" r="2.2" fill="#f2f2f2"/><circle cx="281" cy="60" r="2.2" fill="#6ee06e"/>
        <circle cx="311" cy="56" r="2.2" fill="#ffa23c"/><circle cx="331" cy="48" r="2.2" fill="#f2f2f2"/>
        <circle cx="24" cy="104" r="2" fill="#ffa23c"/><circle cx="58" cy="114" r="2" fill="#5b9dff"/>
        <circle cx="96" cy="119" r="2" fill="#ff5a4a"/><circle cx="134" cy="118" r="2" fill="#6ee06e"/>
        <circle cx="172" cy="111" r="2" fill="#f2f2f2"/>
      </g>
      <g opacity="0.28">
        <circle cx="26.5" cy="49.3" r="5" fill="#6ee06e"/><circle cx="111" cy="63" r="5" fill="#5b9dff"/>
        <circle cx="167" cy="59" r="5" fill="#ff5ec8"/><circle cx="281" cy="60" r="5" fill="#6ee06e"/>
      </g>
      <g stroke="#efe6d2" stroke-opacity="0.85" stroke-width="2.4" stroke-linecap="round">
        <path d="M610 100 l7 -6"/><path d="M648 96 l7 -6"/><path d="M686 98 l7 -6"/>
        <path d="M724 94 l7 -6"/><path d="M762 100 l7 -6"/>
      </g>

      <!-- poste de luz central -->
      <ellipse cx="296" cy="66" rx="58" ry="52" fill="url(#warmGlow)"/>
      <path d="M296 292 V72" stroke="#14171c" stroke-width="3.6"/>
      <path d="M288 292 h16" stroke="#14171c" stroke-width="5"/>
      <path d="M290 78 h12" stroke="#14171c" stroke-width="2"/>
      <path d="M289 56 h14 l3 18 h-20 z" fill="#f6c25c"/>
      <path d="M289 56 h14 l3 18 h-20 z" fill="none" stroke="#191d22" stroke-width="1.6"/>
      <path d="M296 50 l7 6 h-14 z" fill="#191d22"/>

      <!-- chao -->
      <rect x="0" y="250" width="800" height="200" fill="url(#ground)"/>
      <path d="M0 348 C130 328 260 304 396 290 C530 276 668 272 800 274 L800 262 C668 260 528 264 392 278 C256 292 126 316 0 336 Z" fill="#1d2128"/>
      <path d="M0 336 C126 316 256 292 392 278 C528 264 668 260 800 262" fill="none" stroke="#282d34" stroke-width="1.2"/>
      <g stroke="#ffffff" stroke-opacity="0.035" stroke-width="1" fill="none">
        <path d="M-20 366 C200 350 560 348 820 362"/>
        <path d="M-20 390 C200 372 560 370 820 388"/>
        <path d="M-20 416 C200 396 560 394 820 414"/>
        <path d="M-20 444 C200 422 560 420 820 442"/>
        <path d="M120 356 L112 448 M260 352 L256 448 M400 350 L404 448 M540 352 L556 448 M670 356 L700 448"/>
      </g>
      <!-- feixes de luz da janela no calcamento -->
      <g>
        <path d="M452 250 L468 250 L300 450 L226 450 Z" fill="url(#shaft)"/>
        <path d="M474 250 L490 250 L400 450 L322 450 Z" fill="url(#shaft)"/>
        <path d="M496 250 L512 250 L502 450 L424 450 Z" fill="url(#shaft)"/>
      </g>
      <ellipse cx="296" cy="300" rx="76" ry="24" fill="url(#poolGlow)"/>
      <ellipse cx="640" cy="286" rx="180" ry="32" fill="url(#poolGlow)"/>
      <ellipse cx="470" cy="300" rx="150" ry="46" fill="url(#poolGlow)"/>

      <!-- canteiros -->
      <path d="M0 268 C44 258 92 256 132 262 L132 292 L0 300 Z" fill="#131c15"/>
      <path d="M0 268 C44 258 92 256 132 262" fill="none" stroke="#1e2c20" stroke-width="2"/>
      <path d="M700 236 C734 230 772 230 800 236 L800 268 L700 264 Z" fill="#16211a"/>
      <g fill="#d9899f" opacity="0.55">
        <circle cx="716" cy="240" r="1.6"/><circle cx="736" cy="237" r="1.6"/><circle cx="758" cy="236" r="1.6"/>
        <circle cx="780" cy="238" r="1.6"/>
      </g>
      <g fill="#e8e0d0" opacity="0.4">
        <circle cx="726" cy="238" r="1.3"/><circle cx="748" cy="235" r="1.3"/><circle cx="770" cy="237" r="1.3"/>
      </g>

      <!-- balizadores -->
      <g fill="#0c0f13">
        <rect x="58" y="278" width="4.5" height="26" rx="2"/><rect x="96" y="274" width="4.5" height="25" rx="2"/>
        <rect x="136" y="270" width="4.5" height="24" rx="2"/><rect x="178" y="266" width="4.5" height="23" rx="2"/>
        <rect x="216" y="263" width="4.5" height="22" rx="2"/>
        <rect x="352" y="268" width="4.5" height="24" rx="2"/><rect x="392" y="266" width="4.5" height="23" rx="2"/>
        <rect x="560" y="262" width="4.5" height="23" rx="2"/><rect x="600" y="260" width="4.5" height="22" rx="2"/>
      </g>

      <!-- scooter -->
      <ellipse cx="436" cy="308" rx="58" ry="9" fill="#000" opacity="0.45"/>
      <g>
        <circle cx="470" cy="292" r="17" fill="#0a0d11"/>
        <circle cx="470" cy="292" r="17" fill="none" stroke="#20252c" stroke-width="1.4"/>
        <circle cx="470" cy="292" r="8" fill="none" stroke="#c9c1ae" stroke-opacity="0.14" stroke-width="1.6"/>
        <circle cx="398" cy="290" r="15" fill="#0a0d11"/>
        <circle cx="398" cy="290" r="15" fill="none" stroke="#20252c" stroke-width="1.4"/>
        <circle cx="398" cy="290" r="7" fill="none" stroke="#c9c1ae" stroke-opacity="0.14" stroke-width="1.6"/>
        <path d="M392 286 L394 258 C395 250 401 246 407 249 L414 264 L412 288 Z" fill="#12161c"/>
        <path d="M412 282 C418 268 432 262 446 262 L452 250 C456 242 470 242 474 250 L480 268 C486 274 486 284 480 288 L456 290 C452 278 434 276 428 288 Z" fill="#12161c"/>
        <path d="M446 262 L452 250 C456 242 470 242 474 250 L480 268" fill="none" stroke="#e8c184" stroke-opacity="0.35" stroke-width="1.3"/>
        <path d="M394 258 C395 250 401 246 407 249" fill="none" stroke="#e8c184" stroke-opacity="0.28" stroke-width="1.2"/>
        <path d="M404 248 L420 240 M420 240 L428 231" stroke="#161a20" stroke-width="2.4" stroke-linecap="round"/>
        <ellipse cx="430" cy="229" rx="4.5" ry="3" fill="#1b2027" stroke="#3a4049" stroke-width="0.8"/>
        <ellipse cx="394" cy="256" rx="4" ry="3.2" fill="#f0c98a" opacity="0.5"/>
        <path d="M456 276 h26" stroke="#20252c" stroke-width="2.2" stroke-linecap="round"/>
      </g>

      <!-- grade final -->
      <rect width="800" height="200" fill="#2a4260" opacity="0.05"/>
      <rect width="800" height="450" fill="url(#vig)"/>
    </g>
  </defs>

  <rect width="1000" height="900" fill="#101110"/>

  <!-- cabecalho -->
  <use href="#logo" transform="translate(34 18) scale(0.27)"/>
  <text x="66" y="32" font-size="13" fill="#e6e2d8">Splash Screen — SmileEditor</text>
  <text x="66" y="46" font-size="10.5" fill="#6c6a61">Exibida do main() até o renderer ficar pronto · referência visual, não é o build</text>
  <text x="966" y="32" font-size="10.5" fill="#6c6a61" text-anchor="end">800 × 450 @1× (× dpiScale)</text>
  <text x="966" y="46" font-size="10.5" fill="#9a958a" text-anchor="end">v3.0.0 · build 20260803</text>

  <!-- ================= HERO ================= -->
  <g clip-path="url(#heroClip)">
    <g transform="translate(100 64)">
      <use href="#art"/>
      <rect y="150" width="800" height="300" fill="url(#scrim)"/>

      <!-- credito da arte -->
      <text x="766" y="30" font-size="8.5" fill="#e6e2d8" fill-opacity="0.38" text-anchor="end">cena — Bistro · Amazon Lumberyard (ORCA)</text>

      <!-- frase da execucao (sorteada uma vez, estilo Flax) -->
      <text x="36" y="62" font-size="10" font-style="italic" fill="#ddd8ca" fill-opacity="0.68">As probes do DDGI se realocam sozinhas</text>

      <!-- identidade -->
      <use href="#logo" transform="translate(34 320) scale(0.55)"/>
      <g filter="url(#txtShadow)">
        <text x="102" y="352" font-size="30" font-weight="600" fill="#f7f2e6" letter-spacing="0.2">SmileEngine</text>
        <text x="104" y="371" font-size="9" font-weight="600" fill="#d9a514" letter-spacing="2.8">REAL-TIME 3D ENGINE</text>
      </g>

      <!-- bloco de versao -->
      <g text-anchor="end" filter="url(#txtShadow)">
        <text x="766" y="349" font-family="Consolas, Cascadia Mono, monospace" font-size="10.5" fill="#c2bbab">v3.0.0 · build 20260803</text>
        <text x="766" y="365" font-size="9.5" fill="#8a857a">Qt 6.10.2 · DirectX 12 · DXC</text>
        <text x="766" y="381" font-size="9" fill="#6c6a61">© 2026 Kevin Ramos</text>
      </g>

      <line x1="34" y1="398" x2="766" y2="398" stroke="#ffffff" stroke-opacity="0.08"/>

      <!-- etapa ao vivo -->
      <circle cx="38" cy="419" r="3.2" fill="#d9a514"/>
      <circle cx="38" cy="419" r="7" fill="#d9a514" opacity="0.18"/>
      <text x="52" y="423" font-size="11.5" fill="#ddd8ca" filter="url(#txtShadow)">Compilando shaders — 128 / 412 PSOs</text>
      <text x="766" y="423" font-size="10.5" fill="#8a857a" text-anchor="end" filter="url(#txtShadow)">etapa 3 de 6</text>

      <!-- barra de progresso -->
      <rect x="0" y="447" width="800" height="3" fill="#ffffff" fill-opacity="0.09"/>
      <rect x="0" y="447" width="452" height="3" fill="url(#goldBar)"/>
      <rect x="428" y="447" width="24" height="3" fill="#ffe9a8"/>
    </g>
  </g>
  <rect x="100" y="64" width="800" height="450" rx="6" fill="none" stroke="#2e2f28"/>
  <path d="M106 64.5 H894" stroke="#ffffff" stroke-opacity="0.07"/>

  <text x="100" y="536" font-size="10.5" fill="#6c6a61">Estado padrão — arte full-bleed do screenshot, scrim vertical para contraste, identidade à esquerda, build à direita, etapa + barra no rodapé</text>

  <line x1="100" y1="550" x2="900" y2="550" stroke="#23241d"/>

  <!-- ================= ESTADOS ================= -->
  <text x="100" y="562" font-size="10" fill="#9a958a" letter-spacing="1.4">CICLO DE BOOT</text>

  <!-- 1 -->
  <g clip-path="url(#m1)">
    <g transform="translate(100 566) scale(0.235)">
      <use href="#art"/>
      <rect y="240" width="800" height="210" fill="url(#scrim)"/>
    </g>
    <rect x="100" y="626" width="188" height="46" fill="#05060a" opacity="0.55"/>
  </g>
  <use href="#logo" transform="translate(110 632) scale(0.18)"/>
  <text x="132" y="646" font-size="8.5" font-weight="600" fill="#f1eadc">SmileEngine</text>
  <circle cx="113" cy="657" r="2.2" fill="#d9a514"/>
  <text x="120" y="660" font-size="7.5" fill="#c8c2b4">Criando dispositivo D3D12…</text>
  <rect x="100" y="669" width="188" height="3" fill="#ffffff" fill-opacity="0.09"/>
  <rect x="100" y="669" width="30" height="3" fill="url(#goldBar)"/>
  <rect x="100" y="566" width="188" height="106" rx="4" fill="none" stroke="#2a2b24"/>
  <text x="100" y="690" font-size="10" fill="#c8c2b4">1 · dispositivo</text>
  <text x="100" y="704" font-size="9" fill="#6c6a61">adapter, swapchain, filas</text>

  <!-- 2 -->
  <g clip-path="url(#m2)">
    <g transform="translate(304 566) scale(0.235)">
      <use href="#art"/>
      <rect y="240" width="800" height="210" fill="url(#scrim)"/>
    </g>
    <rect x="304" y="626" width="188" height="46" fill="#05060a" opacity="0.55"/>
  </g>
  <use href="#logo" transform="translate(314 632) scale(0.18)"/>
  <text x="336" y="646" font-size="8.5" font-weight="600" fill="#f1eadc">SmileEngine</text>
  <rect x="404" y="574" width="80" height="14" rx="7" fill="#05060a" fill-opacity="0.6" stroke="#ffffff" stroke-opacity="0.12"/>
  <text x="444" y="584" font-size="7.5" fill="#c8c2b4" text-anchor="middle">RTX 4070 · DX12U</text>
  <circle cx="317" cy="657" r="2.2" fill="#d9a514"/>
  <text x="324" y="660" font-size="7.5" fill="#c8c2b4">Compilando shaders 128/412</text>
  <rect x="304" y="669" width="188" height="3" fill="#ffffff" fill-opacity="0.09"/>
  <rect x="304" y="669" width="106" height="3" fill="url(#goldBar)"/>
  <rect x="304" y="566" width="188" height="106" rx="4" fill="none" stroke="#2a2b24"/>
  <text x="304" y="690" font-size="10" fill="#c8c2b4">2 · shaders</text>
  <text x="304" y="704" font-size="9" fill="#6c6a61">chip do adapter aparece aqui</text>

  <!-- 3 -->
  <g clip-path="url(#m3)">
    <g transform="translate(508 566) scale(0.235)">
      <use href="#art"/>
      <rect y="240" width="800" height="210" fill="url(#scrim)"/>
    </g>
    <rect x="508" y="626" width="188" height="46" fill="#05060a" opacity="0.55"/>
  </g>
  <use href="#logo" transform="translate(518 632) scale(0.18)"/>
  <text x="540" y="646" font-size="8.5" font-weight="600" fill="#f1eadc">SmileEngine</text>
  <circle cx="521" cy="657" r="2.2" fill="#d9a514"/>
  <text x="528" y="660" font-size="7.5" fill="#c8c2b4">Carregando cena · BLAS/TLAS</text>
  <rect x="508" y="669" width="188" height="3" fill="#ffffff" fill-opacity="0.09"/>
  <rect x="508" y="669" width="160" height="3" fill="url(#goldBar)"/>
  <rect x="508" y="566" width="188" height="106" rx="4" fill="none" stroke="#2a2b24"/>
  <text x="508" y="690" font-size="10" fill="#c8c2b4">3 · cena</text>
  <text x="508" y="704" font-size="9" fill="#6c6a61">só quando há cena de boot</text>

  <!-- 4 -->
  <g opacity="0.42">
    <g clip-path="url(#m4)">
      <g transform="translate(712 566) scale(0.235)">
        <use href="#art"/>
        <rect y="240" width="800" height="210" fill="url(#scrim)"/>
      </g>
      <rect x="712" y="626" width="188" height="46" fill="#05060a" opacity="0.55"/>
    </g>
    <use href="#logo" transform="translate(722 632) scale(0.18)"/>
    <text x="744" y="646" font-size="8.5" font-weight="600" fill="#f1eadc">SmileEngine</text>
    <circle cx="725" cy="657" r="2.2" fill="#9ac055"/>
    <text x="732" y="660" font-size="7.5" fill="#c8c2b4">Pronto — abrindo o editor</text>
    <rect x="712" y="669" width="188" height="3" fill="#ffffff" fill-opacity="0.09"/>
    <rect x="712" y="669" width="188" height="3" fill="url(#goldBar)"/>
  </g>
  <rect x="712" y="566" width="188" height="106" rx="4" fill="none" stroke="#2a2b24" stroke-dasharray="3 3"/>
  <text x="712" y="690" font-size="10" fill="#c8c2b4">4 · saída</text>
  <text x="712" y="704" font-size="9" fill="#6c6a61">fade-out 220 ms sobre a MainWindow</text>

  <line x1="100" y1="726" x2="900" y2="726" stroke="#23241d"/>

  <!-- ================= SPECS ================= -->
  <g font-size="9.5">
    <rect x="100" y="742" width="246" height="128" rx="8" fill="#1a1b15" stroke="#2a2b24"/>
    <text x="116" y="764" font-size="11" font-weight="600" fill="#e6e2d8">Janela</text>
    <line x1="100" y1="774" x2="346" y2="774" stroke="#23241d"/>
    <text x="116" y="791" fill="#c8c2b4">800 × 450 lógicos, escalados por dpiScale</text>
    <text x="116" y="806" fill="#c8c2b4">frameless, centralizada na tela do cursor</text>
    <text x="116" y="821" fill="#c8c2b4">arrastável pelo corpo (press/move do mouse)</text>
    <text x="116" y="836" fill="#c8c2b4">fechar pelo usuário é ignorado</text>
    <text x="116" y="851" fill="#c8c2b4">fade-in 160 ms / fade-out 220 ms</text>
    <text x="116" y="866" fill="#6c6a61">cantos 6 px · borda #2e2f28 · sem sombra do OS</text>

    <rect x="376" y="742" width="248" height="128" rx="8" fill="#1a1b15" stroke="#2a2b24"/>
    <text x="392" y="764" font-size="11" font-weight="600" fill="#e6e2d8">Conteúdo</text>
    <line x1="376" y1="774" x2="624" y2="774" stroke="#23241d"/>
    <text x="392" y="791" fill="#c8c2b4">arte: PNG do Bistro em Editor/Resources</text>
    <text x="392" y="806" fill="#c8c2b4">fallback: gradiente + logo se a arte faltar</text>
    <text x="392" y="821" fill="#c8c2b4">logo: MakeSmileLogoPixmap() — o do ícone da janela</text>
    <text x="392" y="836" fill="#c8c2b4">Inter na UI, Consolas na versão</text>
    <text x="392" y="851" fill="#c8c2b4">scrim + vinheta garantem contraste do texto</text>
    <text x="392" y="866" fill="#6c6a61">frase sorteada por execução (30 no array), estilo Flax</text>

    <rect x="654" y="742" width="246" height="128" rx="8" fill="#1a1b15" stroke="#2a2b24"/>
    <text x="670" y="764" font-size="11" font-weight="600" fill="#e6e2d8">Ciclo de vida</text>
    <line x1="654" y1="774" x2="900" y2="774" stroke="#23241d"/>
    <text x="670" y="791" fill="#c8c2b4">show() no main(), antes da MainWindow</text>
    <text x="670" y="806" fill="#c8c2b4">SetStage(texto, 0..1) de qualquer thread</text>
    <text x="670" y="821" fill="#c8c2b4">(QMetaObject::invokeMethod, queued)</text>
    <text x="670" y="836" fill="#c8c2b4">fecha em ViewportWidget::RendererInitialized</text>
    <text x="670" y="851" fill="#c8c2b4">com cena de boot, espera o BeginSceneLoad</text>
    <text x="670" y="866" fill="#6c6a61">timer próprio de 16 ms mantém a animação viva</text>
  </g>

  <text x="100" y="890" font-size="9" fill="#57564f">Padrões: Unreal (arte full-bleed + progresso) · Flax (janela sem borda, não fechável) · CryEngine (status de qualquer subsistema)</text>
  <text x="900" y="890" font-size="9" fill="#57564f" text-anchor="end">Editor/Design/SplashScreen_Reference.svg</text>
</svg>
